<svg width="54" height="54" viewBox="0 0 54 54" fill="none" xmlns="http://www.w3.org/2000/svg">
<path fill-rule="evenodd" clip-rule="evenodd" d="M2.95841 15.0882H51.0414C51.9872 15.0882 52.4117 14.6211 52.4117 13.7804C52.4117 8.79771 44.403 0 26.9998 0C9.43373 0 1.58816 8.79771 1.58816 13.7804C1.58816 14.6211 2.01227 15.0882 2.95841 15.0882ZM52.4117 46.2673C52.4117 45.5028 51.9872 45.0662 51.0414 45.0662H2.95839C2.01225 45.0662 1.58813 45.5028 1.58813 46.2673C1.58813 47.6088 2.87685 49.4805 5.42118 50.8529C9.66193 53.1462 16.9364 53.8015 26.9998 53.8015C37.0634 53.8015 44.3375 53.1462 48.5786 50.8529C51.123 49.4805 52.4117 47.6088 52.4117 46.2673Z" fill="#F58538"/>
<path d="M14.0819 27.3813C11.4396 27.3813 10.0533 25.8557 10.0533 23.9369V18.6369C10.0533 17.6932 10.6241 16.9382 11.6679 16.9382C12.7116 16.9382 13.2988 17.6932 13.2988 18.6369V23.7638C13.2988 24.1415 13.4946 24.5818 14.0819 24.5818C14.6691 24.5818 14.8974 24.1415 14.8974 23.7638V18.6369C14.8974 17.6932 15.4682 16.9382 16.5119 16.9382C17.5563 16.9382 18.1271 17.6932 18.1271 18.6369V23.9369C18.1271 25.8557 16.7241 27.3813 14.0819 27.3813Z" fill="#D72300"/>
<path fill-rule="evenodd" clip-rule="evenodd" d="M3.49647 27.3026H5.79617C7.96551 27.3026 9.28666 25.9031 9.28666 24.157C9.28666 22.7996 8.47339 22.1521 8.24569 21.9708L8.2262 21.9552C8.14499 21.8924 8.06344 21.8292 8.06344 21.7664C8.06344 21.7049 8.09348 21.6724 8.14559 21.6159C8.16011 21.6002 8.17634 21.5826 8.19412 21.5621C8.50391 21.2159 8.81373 20.6656 8.81373 19.8634C8.81373 17.9762 7.49261 16.9694 5.43756 16.9694H3.49647C2.20809 16.9694 1.58813 17.6932 1.58813 18.6681V25.604C1.58813 26.5792 2.20809 27.3026 3.49647 27.3026ZM4.86673 21.1061C4.58933 21.1061 4.45865 20.9488 4.45865 20.7442V19.6746C4.45865 19.4702 4.58933 19.313 4.86673 19.313H5.07861C5.77979 19.313 5.99201 19.7848 5.99201 20.1937C5.99201 20.5711 5.77979 21.1061 5.07861 21.1061H4.86673ZM4.86673 22.9933H5.16016C5.94288 22.9933 6.17148 23.4967 6.17148 23.9527C6.17148 24.3616 5.94288 24.9436 5.16016 24.9436H4.86673C4.58933 24.9436 4.45865 24.7861 4.45865 24.5818V23.3549C4.45865 23.1505 4.58933 22.9933 4.86673 22.9933Z" fill="#D72300"/>
<path fill-rule="evenodd" clip-rule="evenodd" d="M19.1709 25.6826C19.1709 26.6262 19.7417 27.3813 20.7858 27.3813C21.8295 27.3813 22.4004 26.6262 22.4004 25.6826V24.0155C22.4004 23.8112 22.4982 23.7167 22.6614 23.7167C22.8569 23.7167 22.9221 23.827 22.9548 24.0155C23.1015 24.8176 23.4929 25.9031 23.9337 26.4534C24.4881 27.1612 25.0099 27.3813 25.5319 27.3813C26.3801 27.3813 27.114 26.7364 27.114 25.9343C27.114 25.3997 26.8858 25.0065 26.592 24.6446L26.5174 24.5504C26.0748 23.9921 25.6837 23.4988 25.4827 22.9775C25.434 22.8518 25.4664 22.7416 25.6134 22.6314C26.1191 22.254 26.7059 21.4203 26.7059 20.0993C26.7059 18.1019 24.9935 16.9694 22.9221 16.9694H21.0792C19.7905 16.9694 19.1709 17.6932 19.1709 18.6681V25.6826ZM22.6286 21.3732C22.3512 21.3732 22.2209 21.2159 22.2209 21.0117V19.942C22.2209 19.7378 22.3512 19.5805 22.6286 19.5805H22.8569C23.542 19.5805 23.7539 20.0522 23.7539 20.4612C23.7539 20.8544 23.542 21.3732 22.8569 21.3732H22.6286Z" fill="#D72300"/>
<path fill-rule="evenodd" clip-rule="evenodd" d="M44.4682 25.6826C44.4682 26.6262 45.039 27.3813 46.0831 27.3813C47.1268 27.3813 47.6976 26.6262 47.6976 25.6826V24.0155C47.6976 23.8112 47.7956 23.7167 47.9586 23.7167C48.1542 23.7167 48.2197 23.827 48.2521 24.0155C48.3992 24.8176 48.7905 25.9031 49.231 26.4534C49.7855 27.1612 50.3075 27.3813 50.8292 27.3813C51.6774 27.3813 52.4117 26.7364 52.4117 25.9343C52.4117 25.3997 52.1831 25.0065 51.8893 24.6446C51.3348 23.9684 50.9922 23.5279 50.7804 22.9775C50.7313 22.8518 50.764 22.7416 50.9107 22.6314C51.4164 22.254 52.0036 21.4203 52.0036 20.0993C52.0036 18.1019 50.2911 16.9694 48.2197 16.9694H46.3765C45.0878 16.9694 44.4682 17.6932 44.4682 18.6681V25.6826ZM47.9262 21.3732C47.6489 21.3732 47.5182 21.2159 47.5182 21.0117V19.942C47.5182 19.7378 47.6489 19.5805 47.9262 19.5805H48.1542C48.8393 19.5805 49.0515 20.0522 49.0515 20.4612C49.0515 20.8544 48.8393 21.3732 48.1542 21.3732H47.9262Z" fill="#D72300"/>
<path d="M41.7604 23.3707H40.6352C40.358 23.3707 40.2274 23.5279 40.2274 23.7326V24.0313C40.2274 24.2356 40.358 24.3932 40.6352 24.3932H42.1034C43.0164 24.3932 43.7342 24.9121 43.7342 25.8399C43.7342 26.7838 43.0164 27.3026 42.1034 27.3026H39.0206C37.7322 27.3026 37.1122 26.5792 37.1122 25.604V18.6681C37.1122 17.6932 37.7322 16.9694 39.0206 16.9694H42.1034C43.0164 16.9694 43.7342 17.4886 43.7342 18.4164C43.7342 19.36 43.0164 19.8792 42.1034 19.8792H40.6352C40.358 19.8792 40.2274 20.0364 40.2274 20.2408V20.4928C40.2274 20.6971 40.358 20.8544 40.6352 20.8544H41.7604C42.5435 20.8544 43.1634 21.3104 43.1634 22.1125C43.1634 22.9147 42.5435 23.3707 41.7604 23.3707Z" fill="#D72300"/>
<path d="M35.351 17.7245C34.6658 17.2369 33.7033 16.875 32.2679 16.875C29.7399 16.875 27.2768 18.4792 27.2768 22.1912C27.2768 25.7454 29.7399 27.3971 32.1703 27.3971C34.731 27.3971 36.3456 25.8241 36.3456 23.5279C36.3456 22.0651 35.4321 21.0587 33.6054 21.0587H33.0833C32.1215 21.0587 31.3709 21.4993 31.3709 22.4899C31.3709 23.3707 32.1703 23.7954 32.7739 23.7954C33.0833 23.7954 33.2792 23.8898 33.2792 24.1099C33.2792 24.3932 32.9366 24.5818 32.5453 24.5818C31.322 24.5818 30.4902 23.7484 30.4902 22.1912C30.4902 20.4612 31.6318 19.8322 32.5125 19.8322C33.0992 19.8322 33.4195 19.991 33.7109 20.1355C33.9542 20.2561 34.1774 20.3668 34.5188 20.3668C35.383 20.3668 35.9706 19.6746 35.9706 18.9514C35.9706 18.4164 35.726 18.0078 35.351 17.7245Z" fill="#D72300"/>
<path d="M6.85964 38.516V40.7247C6.85964 42.2492 5.92163 43.4779 4.22389 43.4779C2.50957 43.4779 1.58813 42.2492 1.58813 40.7247V31.1432C1.58813 29.6188 2.50957 28.3897 4.22389 28.3897C5.92163 28.3897 6.85964 29.6188 6.85964 31.1432V32.6986C6.85964 32.9007 6.94015 33.0253 7.13431 33.0253C7.24763 33.0253 7.32847 32.994 7.47393 32.8541C8.05608 32.3098 8.96162 30.9408 9.72171 29.7587C10.2876 28.872 11.1285 28.3897 12.0175 28.3897C13.4085 28.3897 14.6857 29.4476 14.6857 30.8009C14.6857 31.3297 14.4916 31.9674 14.0227 32.6673C13.4085 33.5853 12.2925 34.596 11.8399 35.0008C11.6457 35.1716 11.5487 35.2962 11.5487 35.467C11.5487 35.5295 11.5649 35.6694 11.7107 35.8871C12.0987 36.4627 13.1655 37.707 14.0714 38.6559C14.7828 39.4027 15.1546 40.0248 15.1546 40.8647C15.1546 42.218 13.8935 43.4779 12.3896 43.4779C11.5003 43.4779 10.6593 43.0269 9.98044 42.3114C8.97785 41.2379 7.89439 39.418 7.5223 38.5625C7.51246 38.5435 7.5026 38.5215 7.49204 38.498C7.43359 38.3678 7.35345 38.1893 7.13431 38.1893C6.94015 38.1893 6.85964 38.3292 6.85964 38.516Z" fill="#D72300"/>
<path d="M29.0654 37.4116V40.7716C29.0654 42.2802 28.1492 43.4779 26.4632 43.4779C24.7779 43.4779 23.8614 42.2802 23.8614 40.7716V31.1585C23.8614 29.6188 24.8107 28.3897 26.5289 28.3897C27.5601 28.3897 28.4598 28.7633 29.3273 30.3652L31.6019 34.565C31.7165 34.7827 31.8148 34.8605 31.9459 34.8605C32.126 34.8605 32.2239 34.7362 32.2239 34.4564V31.0964C32.2239 29.5875 33.1403 28.3897 34.826 28.3897C36.5118 28.3897 37.4279 29.5875 37.4279 31.0964V40.7091C37.4279 42.2492 36.4789 43.4779 34.7603 43.4779C33.7624 43.4779 32.8295 43.1047 31.9623 41.5024L29.6871 37.3026C29.5731 37.0849 29.4748 37.0071 29.3437 37.0071C29.1636 37.0071 29.0654 37.1318 29.0654 37.4116Z" fill="#D72300"/>
<path d="M50.917 29.6044C49.926 28.9037 48.4312 28.3897 46.3189 28.3897C42.5333 28.3897 38.8454 30.6786 38.8454 36.004C38.8454 41.0958 42.5333 43.4779 46.1728 43.4779C49.9909 43.4779 52.4118 41.2203 52.4118 37.9193C52.4118 35.8327 51.0472 34.3845 48.3013 34.3845H47.5051C46.0755 34.3845 44.9706 35.0229 44.9706 36.4242C44.9706 37.7011 46.1728 38.3085 47.0666 38.3085C47.5051 38.3085 47.814 38.433 47.814 38.76C47.814 39.1649 47.294 39.4294 46.7417 39.4294C44.9054 39.4294 43.6546 38.2307 43.6546 36.004C43.6546 33.5281 45.3608 32.6252 46.6768 32.6252C47.5533 32.6252 48.0294 32.8565 48.4625 33.0669C48.8242 33.2426 49.156 33.4037 49.666 33.4037C50.9657 33.4037 51.8429 32.3916 51.8429 31.364C51.8429 30.6011 51.4856 30.0093 50.917 29.6044Z" fill="#D72300"/>
<path d="M19.2046 28.3897C21.0394 28.3897 22.0392 29.6965 22.0392 31.3297V40.5383C22.0392 42.1715 21.0394 43.4779 19.2046 43.4779C17.3694 43.4779 16.3697 42.1715 16.3697 40.5383V31.3297C16.3697 29.6965 17.3694 28.3897 19.2046 28.3897Z" fill="#D72300"/>
<path fill-rule="evenodd" clip-rule="evenodd" d="M52.4332 52.3207C52.6278 52.3207 52.7359 52.2241 52.7359 52.0946C52.7359 51.9546 52.639 51.8791 52.4655 51.8791H52.196V52.3207H52.4332ZM51.8608 53.085V51.7386C51.8608 51.6524 51.9365 51.5664 52.0229 51.5664H52.4765C52.8332 51.5664 53.0818 51.782 53.0818 52.0724C53.0818 52.3202 52.9413 52.5356 52.6169 52.5895L52.9736 52.9877C53.0059 53.0199 53.0276 53.0633 53.0276 53.0955C53.0276 53.1921 52.9631 53.2571 52.8655 53.2571C52.8008 53.2571 52.7574 53.2243 52.725 53.1816L52.2497 52.6217H52.1964V53.085C52.1964 53.1705 52.1199 53.246 52.0229 53.246C51.9365 53.246 51.8608 53.1705 51.8608 53.085ZM53.6545 52.4069C53.6545 51.6097 53.0275 51.1472 52.4117 51.1472C51.796 51.1472 51.1691 51.6097 51.1691 52.4069C51.1691 53.2362 51.796 53.6778 52.4117 53.6778C53.0275 53.6778 53.6545 53.2362 53.6545 52.4069ZM50.8235 52.4065C50.8235 51.5451 51.4933 50.8235 52.4117 50.8235C53.3301 50.8235 54 51.5451 54 52.4065C54 53.3331 53.3301 54 52.4117 54C51.4933 54 50.8235 53.3219 50.8235 52.4065Z" fill="#D72300"/>
</svg>
